<svg width="18" height="18" viewBox="0 0 8 8" fill="none" xmlns="http://www.w3.org/2000/svg">
<g clip-path="url(#clip0_1_711)">
<path d="M3.97529 2.14372C3.04963 2.14372 2.30298 2.88651 2.30298 3.80741C2.30298 4.7283 3.04963 5.47109 3.97529 5.47109C4.90095 5.47109 5.64759 4.7283 5.64759 3.80741C5.64759 2.88651 4.90095 2.14372 3.97529 2.14372ZM3.97529 4.88902C3.3771 4.88902 2.88807 4.40396 2.88807 3.80741C2.88807 3.21085 3.37564 2.72579 3.97529 2.72579C4.57493 2.72579 5.0625 3.21085 5.0625 3.80741C5.0625 4.40396 4.57347 4.88902 3.97529 4.88902ZM6.10606 2.07567C6.10606 2.29141 5.9314 2.46372 5.716 2.46372C5.49914 2.46372 5.32594 2.28996 5.32594 2.07567C5.32594 1.86137 5.50059 1.68762 5.716 1.68762C5.9314 1.68762 6.10606 1.86137 6.10606 2.07567ZM7.21365 2.46951C7.18891 1.9497 7.06956 1.48925 6.68678 1.10989C6.30545 0.730527 5.84262 0.611795 5.32012 0.585732C4.7816 0.555326 3.16752 0.555326 2.629 0.585732C2.10795 0.610347 1.64512 0.729079 1.26234 1.10844C0.879559 1.4878 0.761669 1.94825 0.735471 2.46806C0.704906 3.0038 0.704906 4.60957 0.735471 5.14531C0.760213 5.66512 0.879559 6.12556 1.26234 6.50493C1.64512 6.88429 2.1065 7.00302 2.629 7.02908C3.16752 7.05949 4.7816 7.05949 5.32012 7.02908C5.84262 7.00447 6.30545 6.88574 6.68678 6.50493C7.0681 6.12556 7.18745 5.66512 7.21365 5.14531C7.24421 4.60957 7.24421 3.00525 7.21365 2.46951ZM6.51795 5.72014C6.40442 6.00394 6.18465 6.22258 5.89793 6.33696C5.46857 6.50637 4.44976 6.46728 3.97529 6.46728C3.50081 6.46728 2.48055 6.50493 2.05265 6.33696C1.76738 6.22402 1.54761 6.00538 1.43263 5.72014C1.26234 5.293 1.30164 4.27944 1.30164 3.80741C1.30164 3.33538 1.2638 2.32037 1.43263 1.89467C1.54615 1.61088 1.76592 1.39224 2.05265 1.27785C2.482 1.10844 3.50081 1.14753 3.97529 1.14753C4.44976 1.14753 5.47003 1.10989 5.89793 1.27785C6.1832 1.39079 6.40297 1.60943 6.51795 1.89467C6.68823 2.32182 6.64894 3.33538 6.64894 3.80741C6.64894 4.27944 6.68823 5.29444 6.51795 5.72014Z" fill="white"/>
</g>
<defs>
<clipPath id="clip0_1_711">
<rect width="6.58976" height="7.41348" fill="white" transform="translate(0.731049 0.101929)"/>
</clipPath>
</defs>
</svg>
