<svg width="18" height="18" viewBox="0 0 9 7" fill="none" xmlns="http://www.w3.org/2000/svg">
<g clip-path="url(#clip0_1_701)">
<path d="M8.10316 1.62815C7.82848 1.74532 7.53712 1.82222 7.23878 1.85631C7.54954 1.67699 7.78814 1.39302 7.90049 1.05467C7.60508 1.22345 7.28188 1.34237 6.94485 1.40629C6.67032 1.12469 6.27922 0.9487 5.84634 0.9487C5.0152 0.9487 4.34134 1.59748 4.34134 2.39766C4.34134 2.51124 4.35467 2.62182 4.38031 2.72789C3.12956 2.66745 2.02065 2.0906 1.27837 1.21394C1.14885 1.42794 1.07464 1.67688 1.07464 1.94239C1.07464 2.44511 1.34035 2.8886 1.74414 3.14846C1.50515 3.14125 1.27142 3.0791 1.06246 2.9672C1.06237 2.97327 1.06237 2.97934 1.06237 2.98543C1.06237 3.68748 1.58113 4.27314 2.26957 4.40625C2.04795 4.46428 1.8155 4.47277 1.58995 4.43108C1.78145 5.00675 2.33725 5.42565 2.99578 5.43738C2.48072 5.82599 1.83179 6.05765 1.12673 6.05765C1.00524 6.05765 0.885463 6.05078 0.767723 6.0374C1.43373 6.44853 2.22478 6.68841 3.07466 6.68841C5.84284 6.68841 7.35655 4.48046 7.35655 2.5657C7.35655 2.50285 7.35512 2.44036 7.3522 2.37824C7.64683 2.17316 7.90113 1.91916 8.10316 1.62815Z" fill="white"/>
</g>
<defs>
<clipPath id="clip0_1_701">
<rect width="7.41348" height="5.76604" fill="white" transform="translate(0.780685 0.925903)"/>
</clipPath>
</defs>
</svg>
